<mxfile host="app.diagrams.net" modified="2021-05-06T09:35:52.721Z" agent="5.0 (Windows)" etag="VS5YjhmuHwdXVyBXt3gb" version="14.6.10" type="github">
  <diagram id="QV0kz-Ia76jmqpTf_SPv" name="Page-1">
    <mxGraphModel dx="778" dy="449" grid="1" gridSize="10" guides="1" tooltips="1" connect="1" arrows="1" fold="1" page="1" pageScale="1" pageWidth="850" pageHeight="1100" math="0" shadow="0">
      <root>
        <mxCell id="0" />
        <mxCell id="1" parent="0" />
        <mxCell id="9v--_U45KxELK2SrYUrc-1" value="package" style="shape=folder;fontStyle=1;spacingTop=10;tabWidth=40;tabHeight=14;tabPosition=left;html=1;" vertex="1" parent="1">
          <mxGeometry x="130" y="100" width="70" height="50" as="geometry" />
        </mxCell>
        <mxCell id="9v--_U45KxELK2SrYUrc-2" value="Module" style="shape=module;align=left;spacingLeft=20;align=center;verticalAlign=top;" vertex="1" parent="1">
          <mxGeometry x="350" y="210" width="100" height="50" as="geometry" />
        </mxCell>
        <mxCell id="9v--_U45KxELK2SrYUrc-3" value="&lt;p style=&quot;margin:0px;margin-top:6px;text-align:center;&quot;&gt;&lt;b&gt;Component&lt;/b&gt;&lt;/p&gt;&lt;hr/&gt;&lt;p style=&quot;margin:0px;margin-left:8px;&quot;&gt;+ Attribute1: Type&lt;br/&gt;+ Attribute2: Type&lt;/p&gt;" style="align=left;overflow=fill;html=1;dropTarget=0;" vertex="1" parent="1">
          <mxGeometry x="335" y="40" width="180" height="90" as="geometry" />
        </mxCell>
        <mxCell id="9v--_U45KxELK2SrYUrc-4" value="" style="shape=component;jettyWidth=8;jettyHeight=4;" vertex="1" parent="9v--_U45KxELK2SrYUrc-3">
          <mxGeometry x="1" width="20" height="20" relative="1" as="geometry">
            <mxPoint x="-24" y="4" as="offset" />
          </mxGeometry>
        </mxCell>
      </root>
    </mxGraphModel>
  </diagram>
</mxfile>
